Coordinates
version=1
nRows=13
nColumns=36
inDegrees=yes

Units are S.I. units (second, meters, Newtons, ...)
If the header above contains a line with 'inDegrees', this indicates whether rotational values are in degrees (yes) or radians (no).

endheader
time	pelvis_tilt	pelvis_list	pelvis_rotation	pelvis_tx	pelvis_ty	pelvis_tz	hip_flexion_r	hip_adduction_r	hip_rotation_r	knee_angle_r	knee_angle_r_beta	ankle_angle_r	subtalar_angle_r	mtp_angle_r	hip_flexion_l	hip_adduction_l	hip_rotation_l	knee_angle_l	knee_angle_l_beta	ankle_angle_l	subtalar_angle_l	mtp_angle_l	lumbar_extension	lumbar_bending	lumbar_rotation	arm_flex_r	arm_add_r	arm_rot_r	elbow_flex_r	pro_sup_r	arm_flex_l	arm_add_l	arm_rot_l	elbow_flex_l	pro_sup_l
      0.33000000	     -4.23081278	     -2.09215081	      6.10265661	      0.22265608	      0.95086111	     -0.17720305	     13.45282117	      6.96032021	     -2.28997074	     12.31033829	      0.21485594	      3.01554278	    -11.30392044	     -6.36025829	     27.61968064	      0.68570831	      8.78318579	     65.90935852	      1.15033531	     -8.31753775	    -22.33753995	     -6.36025829	     -7.40953029	     -0.44798767	     -4.13694304	      2.81993265	    -12.32420970	      4.63756092	     45.72996421	    107.14184260	     -4.08283083	     -7.45476385	     -5.49119863	     44.66606176	    101.73984082
      0.34000000	     -4.22425149	     -1.82674289	      5.42581225	      0.23449126	      0.95260824	     -0.17571867	     12.05886396	      6.91547391	     -2.11825648	     11.27288990	      0.19674905	      3.69558977	     -9.95431143	     -6.38305564	     28.54799433	      0.94640304	      8.38070331	     63.75993186	      1.11282074	     -8.02277726	    -22.79369424	     -6.38305564	     -7.53590949	     -0.87550788	     -3.58829271	      4.17851715	    -12.60582847	      4.94566340	     47.20767732	    107.31820714	     -4.98678343	     -7.21327441	     -6.69766178	     42.93569592	    101.67931323
      0.35000000	     -4.48821609	     -1.62469412	      4.76597127	      0.24626998	      0.95361668	     -0.17423821	     11.02656054	      6.89802438	     -1.93067356	     10.31964322	      0.18011175	      3.99199364	     -9.14667778	     -6.39157833	     29.68349679	      1.14173042	      8.04983444	     61.32835304	      1.07038169	     -7.64401073	    -22.97047573	     -6.39157833	     -7.29816582	     -1.24276265	     -3.26120045	      5.61397862	    -12.69826821	      5.07536315	     48.61773539	    107.42766690	     -6.20622321	     -7.23415023	     -7.33994391	     41.55883583	    101.56232863
      0.36000000	     -4.36807866	     -1.34544443	      4.06875088	      0.25809042	      0.95490475	     -0.17306117	      9.64408685	      6.70837973	     -2.31997520	      9.55577066	      0.16677966	      5.61446329	     -6.25779748	     -6.45716963	     30.16538073	      1.36458041	      7.69478077	     58.42411029	      1.01969309	     -7.56679231	    -23.41219495	     -6.45716963	     -7.53193471	     -1.65740151	     -2.88431383	      7.18639978	    -13.12651610	      6.06149481	     50.01003276	    107.57665930	     -7.12170250	     -6.70991930	     -9.72352468	     39.97361167	    101.66717652
      0.37000000	     -4.37001857	     -1.19469969	      3.37178910	      0.26986310	      0.95568284	     -0.17171806	      8.36278027	      6.71496914	     -2.19739642	      8.65337305	      0.15102985	      6.12403993	     -5.11744106	     -6.48816101	     30.69129386	      1.38082548	      7.36077009	     55.25859193	      0.96444437	     -7.26310116	    -23.37990135	     -6.48816101	     -7.60550157	     -1.92319365	     -2.42357997	      8.63466049	    -13.47948135	      6.66417010	     51.51334391	    107.66306629	     -8.00129616	     -6.52798037	    -10.93248201	     38.31366984	    101.54947070
      0.38000000	     -4.45822068	     -0.98430343	      2.66970225	      0.28173894	      0.95599788	     -0.17041402	      7.25449051	      6.60333107	     -2.34027320	      7.92732300	      0.13835789	      7.06883940	     -3.38238192	     -6.55353382	     31.13708034	      1.42825172	      7.00468035	     51.72333949	      0.90274257	     -7.11474808	    -23.27752622	     -6.55353382	     -7.52979556	     -2.27285898	     -2.12978077	     10.17449310	    -13.72227153	      7.48021574	     52.91364379	    107.60813466	     -9.10206225	     -6.27178230	    -12.59792395	     37.03380208	    101.48260598
      0.39000000	     -4.51144476	     -0.84242839	      1.95830890	      0.29360862	      0.95606898	     -0.16903161	      6.06703743	      6.60398294	     -2.08959271	      7.09233327	      0.12378457	      7.48851075	     -2.63887219	     -6.56917753	     31.40602692	      1.32307688	      6.59363116	     47.87926668	      0.83565085	     -6.96273945	    -22.92980364	     -6.56917753	     -7.49695923	     -2.53753974	     -1.61110941	     11.48572207	    -14.04179456	      7.98012637	     54.52320001	    107.69360098	     -9.98935866	     -6.18685516	    -13.50016026	     35.55288889	    101.26462561
      0.40000000	     -4.54473138	     -0.78544903	      1.26224688	      0.30552807	      0.95575898	     -0.16776624	      4.93564767	      6.64543562	     -2.09200759	      6.41873168	      0.11202800	      8.27409657	     -1.27027561	     -6.60159848	     31.52733378	      1.12294025	      6.23463684	     43.78605084	      0.76421075	     -6.87444295	    -22.56030661	     -6.60159848	     -7.46817854	     -2.67774425	     -1.20373807	     12.83274785	    -14.37487802	      8.64708793	     56.21751409	    107.68596615	    -10.90767035	     -5.94224444	    -14.97931518	     34.23163046	    100.97468442
      0.41000000	     -4.70379228	     -0.73384853	      0.56112850	      0.31745168	      0.95497041	     -0.16642407	      3.94198803	      6.70886581	     -1.77068902	      5.74725576	      0.10030854	      8.76010527	     -0.65885301	     -6.61337899	     31.66241448	      0.86695337	      5.79649894	     39.45481745	      0.68861647	     -6.88299546	    -21.88994780	     -6.61337899	     -7.27252249	     -2.83013576	     -0.73719854	     14.08467868	    -14.64923557	      9.11621281	     57.85044041	    107.75964886	    -11.91135620	     -5.87111350	    -15.78221660	     33.15406889	    100.77406413
      0.42000000	     -4.70969140	     -0.78234588	     -0.13348356	      0.32951177	      0.95403306	     -0.16515764	      2.77899491	      6.85766321	     -1.45985162	      5.10199191	      0.08904656	      9.36373474	      0.08739139	     -6.62660174	     31.52839140	      0.46904721	      5.26264117	     34.97088109	      0.61035702	     -6.90055735	    -21.01464075	     -6.62660174	     -7.25591667	     -2.84788697	     -0.23011346	     15.27552823	    -15.02895197	      9.68966444	     59.60215487	    107.82341581	    -12.80718913	     -5.70746631	    -16.79592180	     32.10759609	    100.53157725
      0.43000000	     -4.63891585	     -0.96231639	     -0.76838189	      0.34167998	      0.95280923	     -0.16407140	      1.56799513	      7.09865864	     -1.32385648	      4.56914616	      0.07974664	     10.20513734	      1.34561538	     -6.66276263	     31.29118563	     -0.05315973	      4.63818385	     30.53124317	      0.53287072	     -6.61425678	    -19.65647830	     -6.66276263	     -7.31855273	     -2.70335360	      0.13969176	     16.49868966	    -15.41614083	     10.30111601	     61.40146720	    107.68708938	    -13.78543969	     -5.33731308	    -18.56605481	     31.46880929	    100.19145121
      0.44000000	     -4.92513303	     -1.33621950	     -1.38144918	      0.35380787	      0.95073766	     -0.16301163	      0.79712330	      7.56809970	     -0.89098146	      4.16359323	      0.07266841	     10.62633557	      1.65115405	     -6.66889583	     31.48314171	     -0.71950837	      4.14308175	     26.24682256	      0.45809347	     -6.65541571	    -18.54494333	     -6.66889583	     -6.92382303	     -2.30039200	      0.47994676	     17.63409446	    -15.61160380	     10.61383739	     62.95328662	    107.76285790	    -14.92656019	     -5.17453274	    -18.96979004	     30.86708438	    100.07790853
      0.45000000	     -4.56764555	     -1.44274728	     -1.93640275	      0.36636212	      0.94945780	     -0.16218846	     -0.82695779	      7.67856041	     -0.50931611	      3.50692918	      0.06120746	     11.40035551	      2.18011746	     -6.68413139	     30.78829016	     -1.12035901	      3.17439766	     21.77701560	      0.38008062	     -6.50094135	    -16.16862274	     -6.68413139	     -7.29860627	     -2.23892699	      1.04602999	     18.59485275	    -16.27386834	     11.32476452	     64.85444331	    107.79829425	    -15.67683726	     -4.97565817	    -19.90525859	     30.32120077	     99.83730036
